<svg xmlns="http://www.w3.org/2000/svg" viewBox="0 0 160 160" role="img" aria-labelledby="title desc">
  <title id="title">NJGROUP logo mark</title>
  <desc id="desc">A navy and gold NJGROUP monogram with a green leaf accent.</desc>
  <rect width="160" height="160" rx="24" fill="#061725"/>
  <path d="M31 91c5-42 36-72 78-75" fill="none" stroke="#173453" stroke-width="12" stroke-linecap="round"/>
  <path d="M118 41v55c0 20-13 32-34 32H73v-15h12c12 0 18-6 18-17V41z" fill="#c8913b"/>
  <path d="M54 112V49h18l35 43v30H91L70 95v17z" fill="#173453"/>
  <path d="M127 54c17 31 8 69-22 89" fill="none" stroke="#c8913b" stroke-width="9" stroke-linecap="round"/>
  <path d="M28 101c29 5 49 20 59 45-29-4-50-19-59-45z" fill="#71813a"/>
  <path d="M38 110c17 9 31 20 42 32" fill="none" stroke="#e5e7eb" stroke-width="3" stroke-linecap="round" opacity=".72"/>
</svg>
