<svg xmlns="http://www.w3.org/2000/svg" viewBox="0 0 720 240" role="img" aria-label="Green circular economy visual">
  <defs><linearGradient id="bg" x1="0" y1="0" x2="1" y2="1"><stop stop-color="#1f3d35"/><stop offset="1" stop-color="#8d9a4a"/></linearGradient></defs>
  <rect width="720" height="240" rx="20" fill="url(#bg)"/>
  <circle cx="164" cy="130" r="56" fill="none" stroke="#172536" stroke-width="22"/><circle cx="164" cy="130" r="28" fill="#f3ead8"/>
  <path d="M300 162c24-54 78-82 138-70" fill="none" stroke="#fff6df" stroke-width="10" stroke-linecap="round"/><path d="M438 92c-18-28-50-42-92-30 18 28 50 42 92 30Z" fill="#dbe9c5"/>
  <path d="M384 162c38-68 98-82 164-42" fill="none" stroke="#b87936" stroke-width="9" stroke-linecap="round"/><path d="M548 120c-10-38-42-60-88-58 10 38 42 60 88 58Z" fill="#f4d39a"/>
  <path d="M118 72c52-42 116-42 168 0M286 72l-18-4 8-16" fill="none" stroke="#fff6df" stroke-width="8" stroke-linecap="round"/>
  <path d="M604 158c-52 42-116 42-168 0M436 158l18 4-8 16" fill="none" stroke="#fff6df" stroke-width="8" stroke-linecap="round"/>
</svg>
