<svg xmlns="http://www.w3.org/2000/svg" viewBox="0 0 720 240" role="img" aria-label="Digital marketing and brand growth visual">
  <defs><linearGradient id="bg" x1="0" y1="0" x2="1" y2="1"><stop stop-color="#172536"/><stop offset="1" stop-color="#244a63"/></linearGradient></defs>
  <rect width="720" height="240" rx="20" fill="url(#bg)"/>
  <rect x="62" y="54" width="196" height="126" rx="16" fill="#f6efe1"/><path d="M92 92h118M92 124h78" stroke="#244a63" stroke-width="10" stroke-linecap="round"/><circle cx="220" cy="150" r="18" fill="#b87936"/>
  <circle cx="382" cy="112" r="48" fill="#d3b074"/><path d="M382 64v96M334 112h96M350 82c42 30 42 30 64 0M350 142c42-30 42-30 64 0" fill="none" stroke="#244a63" stroke-width="8" stroke-linecap="round"/>
  <rect x="520" y="76" width="74" height="104" rx="12" fill="#7d8644"/><path d="M540 104h34M540 130h26M540 156h34" stroke="#fff6df" stroke-width="8" stroke-linecap="round"/><path d="M594 104l54-34v92l-54-32Z" fill="#b87936"/>
</svg>
