<svg xmlns="http://www.w3.org/2000/svg" viewBox="0 0 720 240" role="img" aria-label="Europe connection and distribution visual">
  <defs><linearGradient id="bg" x1="0" y1="0" x2="1" y2="1"><stop stop-color="#132a33"/><stop offset="1" stop-color="#526238"/></linearGradient></defs>
  <rect width="720" height="240" rx="20" fill="url(#bg)"/>
  <path d="M84 184 138 48l54 136M112 120h52M102 154h72" fill="none" stroke="#f4d39a" stroke-width="10" stroke-linecap="round" stroke-linejoin="round"/>
  <path d="M294 188V92l46-58 48 58v96" fill="#244a63"/><path d="M278 188h126M312 188v-54h54v54M300 92h82" fill="none" stroke="#fff6df" stroke-width="8" stroke-linecap="round"/>
  <circle cx="524" cy="76" r="20" fill="#d3b074"/><circle cx="604" cy="150" r="20" fill="#d3b074"/><circle cx="488" cy="174" r="20" fill="#d3b074"/>
  <path d="M524 76 604 150 488 174 524 76" fill="none" stroke="#fff6df" stroke-width="7" stroke-linecap="round"/>
  <g transform="translate(568 42)"><circle cx="38" cy="38" r="34" fill="#244a63"/><path d="M20 38 32 50 58 22" fill="none" stroke="#fff6df" stroke-width="8" stroke-linecap="round" stroke-linejoin="round"/></g>
</svg>
