<svg xmlns="http://www.w3.org/2000/svg" viewBox="0 0 720 240" role="img" aria-label="Industrial resource integration platform visual">
  <defs><linearGradient id="bg" x1="0" y1="0" x2="1" y2="1"><stop stop-color="#132a33"/><stop offset="1" stop-color="#7d8644"/></linearGradient></defs>
  <rect width="720" height="240" rx="20" fill="url(#bg)"/>
  <circle cx="360" cy="118" r="58" fill="#f6efe1"/><path d="M360 60v116M302 118h116M322 82c50 26 76 26 76 0M322 154c50-26 76-26 76 0" fill="none" stroke="#244a63" stroke-width="8" stroke-linecap="round"/>
  <circle cx="126" cy="116" r="34" fill="#d3b074"/><circle cx="594" cy="116" r="34" fill="#d3b074"/><circle cx="360" cy="42" r="26" fill="#b87936"/><circle cx="360" cy="198" r="26" fill="#7d8644"/>
  <path d="M160 116h142M418 116h142M360 68v70M360 144v28" stroke="#fff6df" stroke-width="9" stroke-linecap="round" stroke-dasharray="18 14"/>
  <path d="M106 116h40M594 96v40M574 116h40M340 42h40M340 198h40" stroke="#244a63" stroke-width="8" stroke-linecap="round"/>
</svg>
