<svg xmlns="http://www.w3.org/2000/svg" viewBox="0 0 720 240" role="img" aria-label="Türkiye market entry visual">
  <defs><linearGradient id="bg" x1="0" y1="0" x2="1" y2="1"><stop stop-color="#244a63"/><stop offset="1" stop-color="#d3b074"/></linearGradient></defs>
  <rect width="720" height="240" rx="20" fill="url(#bg)"/>
  <path d="M36 164c88-72 208-72 296 0" fill="none" stroke="#fff3cd" stroke-width="9" stroke-linecap="round"/>
  <path d="M34 164h300" stroke="#e0a85b" stroke-width="8" stroke-linecap="round"/>
  <rect x="86" y="92" width="14" height="88" rx="4" fill="#fff3cd"/><rect x="270" y="92" width="14" height="88" rx="4" fill="#fff3cd"/>
  <path d="M428 188v-70c0-38 86-38 86 0v70" fill="#173a52"/><rect x="406" y="168" width="130" height="34" rx="6" fill="#f4d39a"/>
  <g transform="translate(62 174)"><path d="M0 42V18h146v24Z" fill="#7d8644"/><path d="M10 18 48 0h52l38 18Z" fill="#b87936"/><rect x="28" y="27" width="24" height="15" fill="#fff6df"/><rect x="82" y="27" width="24" height="15" fill="#fff6df"/></g>
  <g transform="translate(574 86)"><circle cx="34" cy="34" r="28" fill="#fff6df"/><path d="M20 36h28M34 20v48" stroke="#244a63" stroke-width="8" stroke-linecap="round"/><path d="M34 68c22 20 46 26 72 14" stroke="#fff6df" stroke-width="8" fill="none" stroke-linecap="round"/></g>
</svg>
