<svg xmlns="http://www.w3.org/2000/svg" viewBox="0 0 720 320" role="img" aria-label="Türkiye market entry with Istanbul business channels and local market">
  <defs>
    <linearGradient id="turkeySky" x1="0" y1="0" x2="1" y2="1">
      <stop offset="0" stop-color="#fff2dc"/>
      <stop offset=".55" stop-color="#e8f2f1"/>
      <stop offset="1" stop-color="#d1e2e8"/>
    </linearGradient>
    <linearGradient id="sea" x1="0" y1="0" x2="1" y2="0">
      <stop offset="0" stop-color="#75aebc"/>
      <stop offset="1" stop-color="#244a63"/>
    </linearGradient>
  </defs>
  <rect width="720" height="320" rx="26" fill="url(#turkeySky)"/>
  <path d="M0 230c92-26 170-16 252 2 86 18 154 14 244-12 78-23 150-18 224 12v88H0Z" fill="url(#sea)"/>
  <path d="M72 168c114-92 258-92 372 0" fill="none" stroke="#b87936" stroke-width="11" stroke-linecap="round"/>
  <path d="M70 168h376" stroke="#d9a35b" stroke-width="9" stroke-linecap="round"/>
  <rect x="126" y="98" width="16" height="92" rx="4" fill="#a86e33"/>
  <rect x="374" y="98" width="16" height="92" rx="4" fill="#a86e33"/>
  <g transform="translate(438 78)">
    <path d="M46 152V68c0-40 92-40 92 0v84Z" fill="#244a63"/>
    <rect x="24" y="126" width="138" height="42" rx="5" fill="#d3b074"/>
    <rect x="0" y="26" width="14" height="142" rx="4" fill="#b87936"/>
    <rect x="172" y="26" width="14" height="142" rx="4" fill="#b87936"/>
    <path d="M7 26 3 8 0 26ZM179 26l-4-18-3 18Z" fill="#b87936"/>
  </g>
  <g transform="translate(62 204)">
    <path d="M0 68V28h188v40Z" fill="#7d8644"/>
    <path d="M18 28 62 0h64l44 28Z" fill="#b87936"/>
    <rect x="32" y="42" width="28" height="26" fill="#f6d79a"/>
    <rect x="82" y="42" width="28" height="26" fill="#f6d79a"/>
    <rect x="132" y="42" width="28" height="26" fill="#f6d79a"/>
  </g>
  <g transform="translate(268 216)">
    <circle cx="22" cy="22" r="18" fill="#f6d79a"/>
    <circle cx="88" cy="22" r="18" fill="#f6d79a"/>
    <path d="M40 26h30M18 48c26 28 72 28 98 0" fill="none" stroke="#173a52" stroke-width="7" stroke-linecap="round"/>
  </g>
  <path d="M552 238c28-8 56 2 82 30" fill="none" stroke="#fff6df" stroke-width="8" stroke-linecap="round" opacity=".75"/>
</svg>
