<svg xmlns="http://www.w3.org/2000/svg" viewBox="0 0 720 320" role="img" aria-label="China supply chain with factory, green materials and container port">
  <defs>
    <linearGradient id="sky" x1="0" y1="0" x2="0" y2="1">
      <stop offset="0" stop-color="#eaf6f4"/>
      <stop offset="1" stop-color="#f8efe0"/>
    </linearGradient>
    <linearGradient id="water" x1="0" y1="0" x2="1" y2="0">
      <stop offset="0" stop-color="#8fc3cc"/>
      <stop offset="1" stop-color="#4f8aa2"/>
    </linearGradient>
  </defs>
  <rect width="720" height="320" rx="26" fill="url(#sky)"/>
  <circle cx="610" cy="58" r="34" fill="#d69a4d" opacity=".72"/>
  <path d="M0 230c72-28 134-22 192-8 72 17 134 12 202-12 83-29 170-23 326 18v92H0Z" fill="url(#water)"/>
  <path d="M28 216h292v68H28Z" fill="#d8c39a"/>
  <g transform="translate(52 98)">
    <path d="M0 92h238V34l-52 28V34l-54 28V18H92v44L40 34v58Z" fill="#244a63"/>
    <rect x="18" y="60" width="30" height="32" fill="#e6f2ef"/>
    <rect x="86" y="60" width="30" height="32" fill="#e6f2ef"/>
    <rect x="154" y="60" width="30" height="32" fill="#e6f2ef"/>
    <path d="M92 18 102 0h22l10 18Z" fill="#b87936"/>
    <path d="M208 22c20-18 42-18 62 0-18 19-42 19-62 0Z" fill="#7d8644"/>
    <path d="M236 22v58" stroke="#7d8644" stroke-width="8" stroke-linecap="round"/>
  </g>
  <g transform="translate(360 160)">
    <rect x="0" y="70" width="72" height="42" rx="3" fill="#b87936"/>
    <rect x="80" y="70" width="72" height="42" rx="3" fill="#244a63"/>
    <rect x="160" y="70" width="72" height="42" rx="3" fill="#7d8644"/>
    <rect x="34" y="24" width="72" height="42" rx="3" fill="#7d8644"/>
    <rect x="114" y="24" width="72" height="42" rx="3" fill="#d3b074"/>
    <path d="M272 18v118M244 42h84M238 80h96" stroke="#244a63" stroke-width="10" stroke-linecap="round"/>
    <path d="M256 136h74" stroke="#244a63" stroke-width="12" stroke-linecap="round"/>
  </g>
  <path d="M418 116c26-30 66-30 92 0M442 116v60M486 116v60" fill="none" stroke="#b87936" stroke-width="8" stroke-linecap="round"/>
  <path d="M60 278h598" stroke="#fff6df" stroke-width="8" stroke-linecap="round" opacity=".8"/>
</svg>
