<svg xmlns="http://www.w3.org/2000/svg" viewBox="0 0 720 320" role="img" aria-label="Europe market connection with distribution network and compliance">
  <defs>
    <linearGradient id="europeBg" x1="0" y1="0" x2="1" y2="1">
      <stop offset="0" stop-color="#eef5fb"/>
      <stop offset=".6" stop-color="#dce8ee"/>
      <stop offset="1" stop-color="#f3ead8"/>
    </linearGradient>
  </defs>
  <rect width="720" height="320" rx="26" fill="url(#europeBg)"/>
  <path d="M0 246c94-30 174-18 256 0 118 26 238 22 464-16v90H0Z" fill="#b6cad5"/>
  <g transform="translate(58 84)">
    <path d="M20 184h154M58 184 104 20l54 164M78 106h58M66 148h82M94 62h28" fill="none" stroke="#8a6a4e" stroke-width="10" stroke-linecap="round" stroke-linejoin="round"/>
  </g>
  <g transform="translate(278 68)">
    <path d="M36 206V86l58-74 60 74v120Z" fill="#244a63"/>
    <path d="M18 206h156M58 206v-74h76v74M40 86h116M48 62V22M146 62V22" fill="none" stroke="#d3b074" stroke-width="9" stroke-linecap="round" stroke-linejoin="round"/>
  </g>
  <g transform="translate(500 96)">
    <rect x="0" y="88" width="52" height="92" rx="5" fill="#7d8644"/>
    <rect x="72" y="52" width="52" height="128" rx="5" fill="#b87936"/>
    <rect x="144" y="20" width="52" height="160" rx="5" fill="#244a63"/>
    <path d="M16 112h18M16 138h18M88 80h18M88 108h18M160 52h18M160 82h18M160 112h18" stroke="#fff6df" stroke-width="7" stroke-linecap="round"/>
  </g>
  <path d="M176 108c112-60 226-54 342 14" fill="none" stroke="#b87936" stroke-width="7" stroke-linecap="round" stroke-dasharray="20 18"/>
  <circle cx="178" cy="108" r="13" fill="#d3b074"/>
  <circle cx="352" cy="82" r="13" fill="#d3b074"/>
  <circle cx="518" cy="122" r="13" fill="#d3b074"/>
  <g transform="translate(586 36)">
    <circle cx="42" cy="42" r="34" fill="#244a63"/>
    <path d="M24 42 36 55 62 26" fill="none" stroke="#fff6df" stroke-width="8" stroke-linecap="round" stroke-linejoin="round"/>
    <text x="42" y="100" text-anchor="middle" font-family="Arial, sans-serif" font-size="24" font-weight="800" fill="#244a63">CE</text>
  </g>
</svg>
